{
    "asset" : {
        "extensions" : {
            "ASOBO_normal_map_convention" : {
                "tangent_space_convention" : "DirectX"
            }
        },
        "generator" : "Extended Khronos glTF Blender I/O v1.0.0",
        "version" : "2.0"
    },
    "extensionsUsed" : [
        "ASOBO_normal_map_convention",
        "ASOBO_tags",
        "ASOBO_material_invisible"
    ],
    "scene" : 0,
    "scenes" : [
        {
            "extras" : {
                "glTF2ExportSettings" : {
                    "export_apply" : 1,
                    "export_copyright" : "",
                    "export_extras" : 1,
                    "export_generate_guid" : 1,
                    "export_texture_dir" : "..\\texture",
                    "export_xml" : 1,
                    "export_xml_file" : "GBZH35_Helipad_Pillars02",
                    "use_selection" : 1
                }
            },
            "name" : "Scene",
            "nodes" : [
                0
            ]
        }
    ],
    "nodes" : [
        {
            "mesh" : 0,
            "name" : "Pillars_Octo",
            "translation" : [
                -1.0793880224227905,
                2.1329123973846436,
                -0.7198297381401062
            ]
        }
    ],
    "materials" : [
        {
            "emissiveFactor" : [
                0,
                0,
                0
            ],
            "extras" : {
                "msfs_material_mode" : 1,
                "msfs_albedo_texture" : {
                    "name" : "white_plaster_03_diff_4k.jpg",
                    "type" : "Image"
                },
                "msfs_metallic_texture" : {
                    "name" : "white_plaster_03_rough_4k.jpg",
                    "type" : "Image"
                },
                "msfs_normal_texture" : {
                    "name" : "white_plaster_03_nor_4k.jpg",
                    "type" : "Image"
                },
                "msfs_show_tint" : 1,
                "msfs_show_sss_color" : 0,
                "msfs_show_glass_parameters" : 0,
                "msfs_show_decal_parameters" : 0,
                "msfs_show_fresnel_parameters" : 0,
                "msfs_show_parallax_parameters" : 0,
                "msfs_show_geo_decal_parameters" : 0,
                "msfs_show_albedo" : 1,
                "msfs_show_metallic" : 1,
                "msfs_show_normal" : 1,
                "msfs_show_emissive" : 1,
                "msfs_show_detail_albedo" : 1,
                "msfs_show_detail_metallic" : 1,
                "msfs_show_detail_normal" : 1,
                "msfs_show_blend_mask" : 1,
                "msfs_show_anisotropic_direction" : 0,
                "msfs_show_clearcoat" : 0,
                "msfs_show_behind_glass" : 0,
                "msfs_show_blend_mode" : 1,
                "msfs_show_draworder" : 1,
                "msfs_show_no_cast_shadow" : 1,
                "msfs_show_double_sided" : 1,
                "msfs_show_responsive_aa" : 0,
                "msfs_show_day_night_cycle" : 1,
                "msfs_show_collision_material" : 1,
                "msfs_show_road_material" : 1,
                "msfs_show_ao_use_uv2" : 1,
                "msfs_show_uv_clamp" : 1,
                "msfs_show_alpha_cutoff" : 1,
                "msfs_show_blend_threshold" : 1
            },
            "name" : "Concrete",
            "normalTexture" : {
                "index" : 0,
                "texCoord" : 0
            },
            "occlusionTexture" : {
                "index" : 1,
                "texCoord" : 0
            },
            "pbrMetallicRoughness" : {
                "baseColorTexture" : {
                    "index" : 2,
                    "texCoord" : 0
                },
                "metallicRoughnessTexture" : {
                    "index" : 1,
                    "texCoord" : 0
                }
            }
        },
        {
            "emissiveFactor" : [
                0,
                0,
                0
            ],
            "extras" : {
                "msfs_material_mode" : 1,
                "msfs_albedo_texture" : {
                    "name" : "Metal037_4K_Color.jpg",
                    "type" : "Image"
                },
                "msfs_metallic_texture" : {
                    "name" : "Metal037_4K_Roughness.jpg",
                    "type" : "Image"
                },
                "msfs_normal_texture" : {
                    "name" : "Metal037_4K_Normal.jpg",
                    "type" : "Image"
                },
                "msfs_show_tint" : 1,
                "msfs_show_sss_color" : 0,
                "msfs_show_glass_parameters" : 0,
                "msfs_show_decal_parameters" : 0,
                "msfs_show_fresnel_parameters" : 0,
                "msfs_show_parallax_parameters" : 0,
                "msfs_show_geo_decal_parameters" : 0,
                "msfs_show_albedo" : 1,
                "msfs_show_metallic" : 1,
                "msfs_show_normal" : 1,
                "msfs_show_emissive" : 1,
                "msfs_show_detail_albedo" : 1,
                "msfs_show_detail_metallic" : 1,
                "msfs_show_detail_normal" : 1,
                "msfs_show_blend_mask" : 1,
                "msfs_show_anisotropic_direction" : 0,
                "msfs_show_clearcoat" : 0,
                "msfs_show_behind_glass" : 0,
                "msfs_show_blend_mode" : 1,
                "msfs_show_draworder" : 1,
                "msfs_show_no_cast_shadow" : 1,
                "msfs_show_double_sided" : 1,
                "msfs_show_responsive_aa" : 0,
                "msfs_show_day_night_cycle" : 1,
                "msfs_show_collision_material" : 1,
                "msfs_show_road_material" : 1,
                "msfs_show_ao_use_uv2" : 1,
                "msfs_show_uv_clamp" : 1,
                "msfs_show_alpha_cutoff" : 1,
                "msfs_show_blend_threshold" : 1,
                "msfs_color_albedo_mix" : [
                    0.0985039621591568,
                    0.0985039621591568,
                    0.0985039621591568
                ],
                "msfs_roughness_scale" : 1,
                "msfs_draw_order" : 0
            },
            "name" : "Metal",
            "normalTexture" : {
                "index" : 3,
                "texCoord" : 0
            },
            "occlusionTexture" : {
                "index" : 4,
                "texCoord" : 0
            },
            "pbrMetallicRoughness" : {
                "baseColorTexture" : {
                    "index" : 5,
                    "texCoord" : 0
                },
                "metallicRoughnessTexture" : {
                    "index" : 4,
                    "texCoord" : 0
                }
            }
        },
        {
            "alphaMode" : "BLEND",
            "emissiveFactor" : [
                0,
                0,
                0
            ],
            "extensions" : {
                "ASOBO_tags" : {
                    "tags" : [
                        "Road"
                    ],
                    "Collision" : true
                },
                "ASOBO_material_invisible" : {
                    "enabled" : true
                }
            },
            "extras" : {
                "msfs_material_mode" : 15,
                "msfs_show_tint" : 0,
                "msfs_show_sss_color" : 0,
                "msfs_show_glass_parameters" : 0,
                "msfs_show_decal_parameters" : 0,
                "msfs_show_fresnel_parameters" : 0,
                "msfs_show_parallax_parameters" : 0,
                "msfs_show_geo_decal_parameters" : 0,
                "msfs_show_albedo" : 0,
                "msfs_show_metallic" : 0,
                "msfs_show_normal" : 0,
                "msfs_show_emissive" : 0,
                "msfs_show_detail_albedo" : 0,
                "msfs_show_detail_metallic" : 0,
                "msfs_show_detail_normal" : 0,
                "msfs_show_blend_mask" : 0,
                "msfs_show_anisotropic_direction" : 0,
                "msfs_show_clearcoat" : 0,
                "msfs_show_behind_glass" : 0,
                "msfs_show_blend_mode" : 0,
                "msfs_show_draworder" : 0,
                "msfs_show_no_cast_shadow" : 0,
                "msfs_show_double_sided" : 0,
                "msfs_show_responsive_aa" : 0,
                "msfs_show_day_night_cycle" : 0,
                "msfs_show_collision_material" : 1,
                "msfs_show_road_material" : 1,
                "msfs_show_ao_use_uv2" : 0,
                "msfs_show_uv_clamp" : 1,
                "msfs_show_alpha_cutoff" : 0,
                "msfs_show_blend_threshold" : 0,
                "msfs_collision_material" : 1,
                "msfs_road_material" : 1
            },
            "name" : "Colision",
            "pbrMetallicRoughness" : {
                "baseColorFactor" : [
                    0.8424565196037292,
                    1,
                    0.8803686499595642,
                    1
                ],
                "metallicFactor" : 0,
                "roughnessFactor" : 0.5
            }
        }
    ],
    "meshes" : [
        {
            "name" : "8 Shaped Helipad-Grey.002",
            "primitives" : [
                {
                    "attributes" : {
                        "POSITION" : 0,
                        "NORMAL" : 1,
                        "TEXCOORD_0" : 2
                    },
                    "indices" : 3,
                    "material" : 0
                },
                {
                    "attributes" : {
                        "POSITION" : 4,
                        "NORMAL" : 5,
                        "TEXCOORD_0" : 6
                    },
                    "indices" : 7,
                    "material" : 1
                },
                {
                    "attributes" : {
                        "POSITION" : 8,
                        "NORMAL" : 9,
                        "TEXCOORD_0" : 10
                    },
                    "indices" : 11,
                    "material" : 2
                }
            ]
        }
    ],
    "textures" : [
        {
            "source" : 0
        },
        {
            "source" : 1
        },
        {
            "source" : 2
        },
        {
            "source" : 3
        },
        {
            "source" : 4
        },
        {
            "source" : 5
        }
    ],
    "images" : [
        {
            "mimeType" : "image/jpeg",
            "name" : "white_plaster_03_nor_4k",
            "uri" : "white_plaster_03_nor_4k.jpg"
        },
        {
            "mimeType" : "image/jpeg",
            "name" : "white_plaster_03_rough_4k",
            "uri" : "white_plaster_03_rough_4k.jpg"
        },
        {
            "mimeType" : "image/jpeg",
            "name" : "white_plaster_03_diff_4k",
            "uri" : "white_plaster_03_diff_4k.jpg"
        },
        {
            "mimeType" : "image/jpeg",
            "name" : "Metal037_4K_Normal",
            "uri" : "Metal037_4K_Normal.jpg"
        },
        {
            "mimeType" : "image/jpeg",
            "name" : "Metal037_4K_Roughness",
            "uri" : "Metal037_4K_Roughness.jpg"
        },
        {
            "mimeType" : "image/jpeg",
            "name" : "Metal037_4K_Color",
            "uri" : "Metal037_4K_Color.jpg"
        }
    ],
    "accessors" : [
        {
            "bufferView" : 0,
            "componentType" : 5126,
            "count" : 1396,
            "max" : [
                8.623737335205078,
                0.16935226321220398,
                7.842990875244141
            ],
            "min" : [
                -6.911506175994873,
                -2.1329123973846436,
                -7.692253112792969
            ],
            "type" : "VEC3"
        },
        {
            "bufferView" : 1,
            "componentType" : 5126,
            "count" : 1396,
            "type" : "VEC3"
        },
        {
            "bufferView" : 2,
            "componentType" : 5126,
            "count" : 1396,
            "type" : "VEC2"
        },
        {
            "bufferView" : 3,
            "componentType" : 5123,
            "count" : 1632,
            "type" : "SCALAR"
        },
        {
            "bufferView" : 4,
            "componentType" : 5126,
            "count" : 404,
            "max" : [
                8.535484313964844,
                0.19017311930656433,
                7.754737854003906
            ],
            "min" : [
                -6.806025981903076,
                -1.0331635475158691,
                -7.5879058837890625
            ],
            "type" : "VEC3"
        },
        {
            "bufferView" : 5,
            "componentType" : 5126,
            "count" : 404,
            "type" : "VEC3"
        },
        {
            "bufferView" : 6,
            "componentType" : 5126,
            "count" : 404,
            "type" : "VEC2"
        },
        {
            "bufferView" : 7,
            "componentType" : 5123,
            "count" : 480,
            "type" : "SCALAR"
        },
        {
            "bufferView" : 8,
            "componentType" : 5126,
            "count" : 32,
            "max" : [
                8.305878639221191,
                0.3493521213531494,
                7.524075031280518
            ],
            "min" : [
                -6.62708044052124,
                -2.1329123973846436,
                -7.381401062011719
            ],
            "type" : "VEC3"
        },
        {
            "bufferView" : 9,
            "componentType" : 5126,
            "count" : 32,
            "type" : "VEC3"
        },
        {
            "bufferView" : 10,
            "componentType" : 5126,
            "count" : 32,
            "type" : "VEC2"
        },
        {
            "bufferView" : 11,
            "componentType" : 5123,
            "count" : 48,
            "type" : "SCALAR"
        }
    ],
    "bufferViews" : [
        {
            "buffer" : 0,
            "byteLength" : 16752,
            "byteOffset" : 0
        },
        {
            "buffer" : 0,
            "byteLength" : 16752,
            "byteOffset" : 16752
        },
        {
            "buffer" : 0,
            "byteLength" : 11168,
            "byteOffset" : 33504
        },
        {
            "buffer" : 0,
            "byteLength" : 3264,
            "byteOffset" : 44672
        },
        {
            "buffer" : 0,
            "byteLength" : 4848,
            "byteOffset" : 47936
        },
        {
            "buffer" : 0,
            "byteLength" : 4848,
            "byteOffset" : 52784
        },
        {
            "buffer" : 0,
            "byteLength" : 3232,
            "byteOffset" : 57632
        },
        {
            "buffer" : 0,
            "byteLength" : 960,
            "byteOffset" : 60864
        },
        {
            "buffer" : 0,
            "byteLength" : 384,
            "byteOffset" : 61824
        },
        {
            "buffer" : 0,
            "byteLength" : 384,
            "byteOffset" : 62208
        },
        {
            "buffer" : 0,
            "byteLength" : 256,
            "byteOffset" : 62592
        },
        {
            "buffer" : 0,
            "byteLength" : 96,
            "byteOffset" : 62848
        }
    ],
    "buffers" : [
        {
            "byteLength" : 62944,
            "uri" : "GBZH35_Helipad_Pillars02.bin"
        }
    ]
}
